#!OML:ASF F:\VICON\USERDATA\INSTALL\rory3\rory3.ASF
:FULLY-SPECIFIED
:DEGREES
304
root -0.790755 17.2465 -17.5154 92.9665 -67.8096 -431.287
lowerback 7.04124 -1.57994 -3.9271
upperback -2.54123 -2.46981 0.500339
thorax -6.42879 -1.04652 3.03536
lowerneck -19.0141 -5.30803 -9.26878
upperneck 18.8834 -9.38281 18.2477
head 10.6202 -3.20831 6.71163
rclavicle -1.03368e-014 -2.54444e-014
rhumerus -37.2766 -10.3473 -74.0353
rradius 26.5303
rwrist 14.8626
rhand -28.6799 -58.3672
rfingers 7.12502
rthumb -2.04255 -88.3372
lclavicle -1.03368e-014 -2.54444e-014
lhumerus -3.55614 -4.18973 44.8462
lradius 46.1895
lwrist 8.7261
lhand -42.3733 317.353
lfingers 7.12502
lthumb -15.2548 -13.2295
rfemur -54.5587 -3.83807 31.7002
rtibia 37.1315
rfoot 4.28608 -18.501
rtoes -22.7401
lfemur -50.1628 24.4763 -11.9292
ltibia 51.1267
lfoot -34.4817 40.1056
ltoes 14.2625
305
root -0.856355 17.2679 -17.5728 92.3486 -68.7859 -432.065
lowerback 7.77894 -1.80039 -3.91468
upperback -2.28763 -2.7879 0.463946
thorax -6.55959 -1.20226 3.05334
lowerneck -18.733 -5.29595 -9.9712
upperneck 19.0186 -9.32239 18.6846
head 10.6657 -3.20545 7.02665
rclavicle -7.95139e-016 3.18055e-014
rhumerus -38.1721 -11.7167 -73.6068
rradius 25.5746
rwrist 14.8821
rhand -28.1328 -58.0796
rfingers 7.12502
rthumb -1.51417 -88.054
lclavicle -7.95139e-016 3.18055e-014
lhumerus -3.27802 -6.00668 44.0746
lradius 46.3051
lwrist 10.025
lhand -43.0908 318.412
lfingers 7.12502
lthumb -15.9458 -12.2241
rfemur -53.4536 -4.31541 31.4135
rtibia 37.318
rfoot 3.06176 -20.0155
rtoes -16.1395
lfemur -47.9704 24.5799 -12.0212
ltibia 50.7416
lfoot -34.7424 39.9992
ltoes 14.3577
306
root -0.917551 17.2858 -17.666 93.0297 -69.5396 -433.522
lowerback 7.87452 -1.94741 -4.08006
upperback -2.20484 -2.99908 0.524949
thorax -6.49872 -1.3006 3.23851
lowerneck -17.2107 -5.78326 -5.54907
upperneck 18.5681 -9.90913 13.5511
head 9.7387 -3.72565 4.24034
rclavicle -2.3059e-014 -3.18055e-015
rhumerus -39.1629 -13.6271 -72.8529
rradius 24.6587
rwrist 16.048
rhand -26.7763 -57.4991
rfingers 7.12502
rthumb -0.204047 -87.4787
lclavicle -2.3059e-014 -3.18055e-015
lhumerus -2.94273 -7.70892 43.2384
lradius 46.4285
lwrist 11.0128
lhand -43.666 318.096
lfingers 7.12502
lthumb -16.4996 -12.5853
rfemur -52.9353 -3.85631 31.1324
rtibia 37.7116
rfoot -2.86029 -22.7635
rtoes 3.88603
lfemur -46.5544 25.2428 -11.8967
ltibia 50.4161
lfoot -35.2921 39.4163
ltoes 16.8925
307
root -0.956385 17.3012 -17.744 93.6624 -70.2595 -434.127
lowerback 7.45552 -2.23604 -3.77447
upperback -2.37746 -3.34195 0.526324
thorax -6.42934 -1.48263 3.09489
lowerneck -18.7181 -6.16919 -10.6199
upperneck 20.9263 -10.5915 18.0777
head 11.5742 -3.86136 6.78304
rclavicle 4.69132e-014 3.18055e-015
rhumerus -40.0985 -14.0403 -72.999
rradius 24.2468
rwrist 15.3812
rhand -26.3425 -57.7615
rfingers 7.12502
rthumb 0.21493 -87.7412
lclavicle 4.69132e-014 3.18055e-015
lhumerus -2.68757 -8.39901 42.7146
lradius 46.6358
lwrist 10.6039
lhand -41.023 315.345
lfingers 7.12502
lthumb -13.9538 -15.1437
rfemur -53.4661 -4.84379 31.9036
rtibia 38.15
rfoot -4.2462 -23.9349
rtoes 11.6179
lfemur -46.387 25.4272 -12.2491
ltibia 50.3144
lfoot -35.5077 39.4524
ltoes 19.7493
308
root -1.00478 17.288 -17.846 94.4609 -70.834 -434.687
lowerback 6.73045 -2.55378 -3.73727
upperback -2.61421 -3.73489 0.671863
thorax -6.22688 -1.68006 3.2391
lowerneck -18.7986 -6.12013 -10.6271
upperneck 21.3207 -10.4832 17.7252
head 11.6911 -3.83623 6.68295
rclavicle 1.98785e-014 6.36111e-015
rhumerus -40.9243 -13.2575 -73.8781
rradius 24.0149
rwrist 13.3981
rhand -27.8253 -58.6037
rfingers 7.12502
rthumb -1.21719 -88.5799
lclavicle 1.98785e-014 6.36111e-015
lhumerus -2.65466 -9.22306 42.2342
lradius 47.2215
lwrist 10.5058
lhand -43.1771 319.158
lfingers 7.12502
lthumb -16.0289 -11.4851
rfemur -54.2916 -5.76523 33.0734
rtibia 38.799
rfoot -2.30222 -25.5712
rtoes 10.8519
lfemur -46.5785 26.2403 -12.7786
ltibia 50.3676
lfoot -34.9363 39.2505
ltoes 18.6767
309
root -1.07344 17.2578 -17.9381 95.5923 -71.5456 -436.048
lowerback 6.2318 -2.77199 -3.72417
upperback -2.72734 -4.01013 0.692232
thorax -6.03852 -1.8219 3.25603
lowerneck -18.8704 -6.12661 -10.9989
upperneck 21.8209 -10.4752 17.7371
head 11.915 -3.85367 6.78331
rclavicle -4.85035e-014 -2.8625e-014
rhumerus -41.8964 -13.3491 -74.1268
rradius 23.7741
rwrist 12.8099
rhand -29.5966 -59.3028
rfingers 7.12502
rthumb -2.92787 -89.2625
lclavicle -4.85035e-014 -2.8625e-014
lhumerus -2.66835 -9.84682 41.7768
lradius 47.7907
lwrist 9.92233
lhand -43.9977 321.071
lfingers 7.12502
lthumb -16.8189 -9.63761
rfemur -54.6162 -7.10242 34.337
rtibia 39.5358
rfoot 0.190717 -26.6471
rtoes 8.9569
lfemur -46.1884 27.3297 -13.3547
ltibia 50.5834
lfoot -34.7612 38.6647
ltoes 13.8595
310
root -1.14357 17.2192 -18.0375 96.5185 -72.5006 -437.332
lowerback 5.88612 -2.97241 -3.98568
upperback -2.80838 -4.29645 0.596635
thorax -5.89302 -1.95973 3.3112
lowerneck -18.5102 -6.02278 -9.84475
upperneck 21.8116 -10.3177 16.4223
head 11.6447 -3.83413 6.07911
rclavicle 2.8625e-014 3.49861e-014
rhumerus -42.9715 -14.2288 -73.8466
rradius 23.6699
rwrist 12.951
rhand -30.3061 -59.3948
rfingers 7.12502
rthumb -3.6131 -89.3439
lclavicle 2.8625e-014 3.49861e-014
lhumerus -2.59049 -10.0978 41.2036
lradius 48.1615
lwrist 8.30769
lhand -43.3526 318.881
lfingers 7.12502
lthumb -16.1979 -11.7755
rfemur -54.8552 -8.95733 35.617
rtibia 40.3603
rfoot 3.66685 -26.7187
rtoes 4.62664
lfemur -45.7153 28.5774 -14.1135
ltibia 50.7523
lfoot -33.5752 38.565
ltoes 13.2804
311
root -1.20548 17.1806 -18.1532 97.979 -73.2327 -438.677
lowerback 5.10464 -3.2047 -4.30073
upperback -3.04149 -4.6056 0.684363
thorax -5.63692 -2.10729 3.56157
lowerneck -18.4195 -5.99623 -11.005
upperneck 22.0723 -10.1902 17.1204
head 11.8183 -3.80795 6.6024
rclavicle 2.14687e-014 9.22361e-014
rhumerus -43.9288 -14.7048 -73.689
rradius 23.6653
rwrist 12.0849
rhand -29.1553 -58.3036
rfingers 7.12502
rthumb -2.50168 -88.2686
lclavicle 2.14687e-014 9.22361e-014
lhumerus -2.80239 -11.1174 40.7447
lradius 49.1566
lwrist 8.80035
lhand -43.8637 318.159
lfingers 7.12502
lthumb -16.69 -12.5386
rfemur -55.2259 -8.87046 36.0321
rtibia 41.2153
rfoot 5.9813 -27.9433
rtoes 3.16491
lfemur -45.7986 29.5983 -14.6294
ltibia 50.9102
lfoot -32.7721 38.4221
ltoes 13.049
312
root -1.28904 17.1761 -18.2304 98.4565 -74.0256 -439.956
lowerback 4.98946 -3.48006 -4.27638
upperback -2.97355 -4.96418 0.684727
thorax -5.46937 -2.29216 3.56605
lowerneck -18.3432 -5.98998 -12.0465
upperneck 22.2908 -10.0792 17.6786
head 11.9639 -3.79597 7.05124
rclavicle 4.29375e-014 2.8625e-014
rhumerus -44.7603 -15.0804 -73.4293
rradius 23.7386
rwrist 11.2727
rhand -27.347 -57.435
rfingers 7.12502
rthumb -0.755189 -87.4134
lclavicle 4.29375e-014 2.8625e-014
lhumerus -3.19542 -11.8478 40.5399
lradius 50.1727
lwrist 8.95269
lhand -45.243 319.766
lfingers 7.12502
lthumb -18.0174 -11.049
rfemur -54.406 -9.30447 35.9299
rtibia 42.0009
rfoot 6.94364 -28.3934
rtoes 4.5405
lfemur -44.0249 28.4012 -14.1155
ltibia 50.9107
lfoot -35.8709 37.9584
ltoes 15.8407
313
root -1.37317 17.157 -18.3086 99.2348 -74.8803 -441.3
lowerback 4.58041 -3.79774 -3.63949
upperback -2.96795 -5.35265 0.200892
thorax -5.29701 -2.52475 2.7117
lowerneck -17.8239 -5.86816 -10.963
upperneck 22.1039 -10.0038 16.8106
head 11.6495 -3.78728 6.50761
rclavicle 6.63941e-014 -2.8625e-014
rhumerus -45.7729 -15.6574 -73.7321
rradius 23.9358
rwrist 10.9099
rhand -26.5267 -57.1277
rfingers 7.12502
rthumb 0.03708 -87.1074
lclavicle 6.63941e-014 -2.8625e-014
lhumerus -3.12933 -11.8981 39.8047
lradius 50.6594
lwrist 9.30226
lhand -43.4551 318.745
lfingers 7.12502
lthumb -16.2966 -11.9199
rfemur -53.9381 -10.2725 36.1008
rtibia 42.829
rfoot 8.03887 -27.3251
rtoes 5.28869
lfemur -42.6803 27.4957 -13.9572
ltibia 50.9491
lfoot -38.6857 37.1826
ltoes 18.2317
314
root -1.45022 17.1295 -18.4059 100.083 -75.5358 -442.509
lowerback 4.07943 -3.98886 -3.65263
upperback -3.04432 -5.59389 0.199135
thorax -5.07455 -2.65169 2.69753
lowerneck -16.8847 -6.12895 -11.0069
upperneck 21.7723 -10.3469 16.5926
head 11.3802 -4.02308 6.35992
rclavicle 3.37934e-014 7.95139e-014
rhumerus -46.6256 -15.1864 -74.149
rradius 24.3042
rwrist 9.76947
rhand -26.2007 -56.7699
rfingers 7.12502
rthumb 0.351858 -86.7493
lclavicle 3.37934e-014 7.95139e-014
lhumerus -3.30669 -12.1449 39.861
lradius 51.2651
lwrist 7.40951
lhand -44.5211 319.929
lfingers 7.12502
lthumb -17.3228 -10.8226
rfemur -53.4769 -10.2358 36.0405
rtibia 43.6201
rfoot 8.98907 -26.5384
rtoes 6.53593
lfemur -41.9359 28.0136 -14.0094
ltibia 51.0206
lfoot -37.1541 38.1123
ltoes 16.1523
315
root -1.53271 17.094 -18.5062 100.504 -76.2583 -443.332
lowerback 3.53767 -4.2737 -3.7293
upperback -3.08402 -5.96274 0.161907
thorax -4.77976 -2.84303 2.68059
lowerneck -16.463 -6.11071 -10.7277
upperneck 21.7522 -10.3233 16.1734
head 11.2374 -4.05435 6.15259
rclavicle 4.77083e-015 -9.54166e-015
rhumerus -47.3104 -14.464 -74.7441
rradius 24.6979
rwrist 8.76346
rhand -25.1315 -56.9701
rfingers 7.12502
rthumb 1.38455 -86.9453
lclavicle 4.77083e-015 -9.54166e-015
lhumerus -3.49097 -12.5712 39.7672
lradius 51.927
lwrist 6.40042
lhand -46.2247 322.136
lfingers 7.12502
lthumb -18.9618 -8.7678
rfemur -52.973 -10.6431 36.0712
rtibia 44.3216
rfoot 7.75479 -24.974
rtoes 2.37799
lfemur -41.2843 28.7464 -14.2027
ltibia 51.2412
lfoot -37.1454 37.7623
ltoes 16.1627
